HIERARCHY
ROOT Hips
{
	OFFSET 1.893923 102.722656 -8.236155
	CHANNELS 6 Xposition Yposition Zposition Xrotation Yrotation Zrotation
	JOINT Chest
	{
		OFFSET -1.037651 13.604309 0.015114
		CHANNELS 3 Xrotation Yrotation Zrotation
		JOINT Chest2
		{
			OFFSET -0.312220 21.423416 0.079112
			CHANNELS 3 Xrotation Yrotation Zrotation
			JOINT Chest3
			{
				OFFSET 1.897162 14.804993 0.181537
				CHANNELS 3 Xrotation Yrotation Zrotation
				JOINT Neck
				{
					OFFSET 2.323521 17.036316 1.726632
					CHANNELS 3 Xrotation Yrotation Zrotation
					JOINT Head
					{
						OFFSET 0.694339 10.411438 0.973480
						CHANNELS 3 Xrotation Yrotation Zrotation
						End Site
						{
							OFFSET 0.767249 10.406372 0.972795
						}
					}
				}
				JOINT LeftCollar
				{
					OFFSET -0.668137 12.951752 5.797403
					CHANNELS 3 Xrotation Yrotation Zrotation
					JOINT LeftUpArm
					{
						OFFSET 5.224760 -7.549072 14.973740
						CHANNELS 3 Xrotation Yrotation Zrotation
						JOINT LeftLowArm
						{
							OFFSET -19.399715 -26.073349 9.141142
							CHANNELS 3 Xrotation Yrotation Zrotation
							JOINT LeftHand
							{
								OFFSET -28.209763 -9.760124 -3.145950
								CHANNELS 3 Xrotation Yrotation Zrotation
								End Site
								{
									OFFSET -6.165413 -2.133125 -0.687559
								}
							}
						}
					}
				}
				JOINT RightCollar
				{
					OFFSET -1.456007 13.903152 -2.528052
					CHANNELS 3 Xrotation Yrotation Zrotation
					JOINT RightUpArm
					{
						OFFSET 2.764152 -2.760803 -17.124075
						CHANNELS 3 Xrotation Yrotation Zrotation
						JOINT RightLowArm
						{
							OFFSET -24.387486 -21.908829 -8.061584
							CHANNELS 3 Xrotation Yrotation Zrotation
							JOINT RightHand
							{
								OFFSET -20.030798 18.726868 12.207663
								CHANNELS 3 Xrotation Yrotation Zrotation
								End Site
								{
									OFFSET -4.377922 4.092957 2.668097
								}
							}
						}
					}
				}
			}
		}
	}
	JOINT LeftUpLeg
	{
		OFFSET 0.824193 0.051559 9.986853
		CHANNELS 3 Xrotation Yrotation Zrotation
		JOINT LeftLowLeg
		{
			OFFSET -4.872454 -46.958336 -3.893925
			CHANNELS 3 Xrotation Yrotation Zrotation
			JOINT LeftFoot
			{
				OFFSET 9.172434 -41.638023 -13.516984
				CHANNELS 3 Xrotation Yrotation Zrotation
				JOINT LeftToe
				{
					OFFSET -16.552572 -16.890844 0.520729
					CHANNELS 3 Xrotation Yrotation Zrotation
					End Site
					{
						OFFSET -22.357651 -3.479151 6.898542
					}
				}
			}
		}
	}
	JOINT RightUpLeg
	{
		OFFSET -0.824178 -0.051758 -9.986856
		CHANNELS 3 Xrotation Yrotation Zrotation
		JOINT RightLowLeg
		{
			OFFSET -20.075781 -42.737106 3.809856
			CHANNELS 3 Xrotation Yrotation Zrotation
			JOINT RightFoot
			{
				OFFSET 10.426120 -38.528721 20.184483
				CHANNELS 3 Xrotation Yrotation Zrotation
				JOINT RightToe
				{
					OFFSET 0.465967 -23.291910 4.102002
					CHANNELS 3 Xrotation Yrotation Zrotation
					End Site
					{
						OFFSET -13.891170 -19.093822 -1.420388
					}
				}
			}
		}
	}
}
MOTION
Frames: 8
Frame Time: 0.033333
0.933265 97.345612 -9.869591 -2.705736 33.222774 5.594053 -0.022779 -0.551644 7.547818 6.349074 3.506392 -4.027214 0.113401 13.227124 0.650546 12.105838 9.464281 0.315917 -0.000002 0.000001 -0.000001 -1.778173 -8.118004 2.517031 -17.669812 -1.553982 -5.394775 15.574020 -37.989823 -4.232805 -0.000001 -0.000000 -0.000003 9.777354 4.159138 1.679155 26.985751 -2.225096 -15.369141 4.763803 17.090122 -1.546821 0.000004 0.000003 -0.000003 3.540940 0.330551 -13.018750 -4.282340 -9.246595 24.363426 5.016491 -21.256334 -12.915850 -0.000002 0.000003 0.000000 11.442066 -4.558571 -18.851196 -11.371168 1.221391 4.932194 0.635601 4.139567 9.685181 0.000001 0.000001 0.000003 
0.934761 97.266052 -9.920980 -2.541745 32.980224 5.632538 0.336763 -0.478306 7.736463 5.598726 3.170731 -4.479973 0.399799 13.628549 0.882518 12.203998 9.672045 0.247666 -0.000001 -0.000000 -0.000002 -2.142152 -8.229820 2.386586 -18.111461 -0.943935 -5.296313 16.395167 -38.221496 -3.646012 0.000000 -0.000000 -0.000003 9.808421 4.154696 1.579783 26.700738 -2.162092 -15.685012 4.578612 17.682291 -0.723349 0.000005 0.000001 -0.000000 3.409972 0.416453 -13.182306 -3.834790 -9.320673 24.566097 5.147655 -21.217532 -12.632133 -0.000001 0.000001 0.000000 11.282734 -4.576266 -18.984623 -11.478872 1.404818 4.961051 0.541116 3.949423 9.592549 0.000000 -0.000001 0.000003 
0.931058 97.194733 -9.974871 -2.577520 32.734966 5.589798 -0.083548 -0.529560 7.658410 6.261038 3.454214 -4.167580 0.085395 13.044504 0.568854 12.341806 10.015088 0.109043 -0.000001 -0.000001 0.000000 -2.271384 -8.039087 2.513039 -18.466550 -0.601648 -5.083569 17.804498 -39.307343 -2.563679 0.000000 -0.000001 -0.000001 10.170516 4.819406 1.830292 26.922608 -2.159432 -15.945574 4.604371 16.766972 -0.672446 0.000003 0.000002 -0.000003 3.855212 0.413761 -12.847368 -3.752853 -9.483308 24.391405 4.940204 -20.455366 -12.675427 -0.000003 -0.000001 0.000000 11.276197 -4.586680 -18.894492 -11.472918 1.728406 5.056378 0.350828 4.028912 9.794145 -0.000002 0.000003 0.000003 
0.926828 97.125000 -10.024176 -2.242162 32.054074 5.868041 0.013035 -0.476209 7.450012 6.377309 3.521787 -4.442143 -0.185943 13.319290 0.592860 12.623302 10.216500 0.017634 -0.000001 -0.000001 -0.000000 -2.465878 -8.002525 2.373118 -18.219540 -0.357349 -4.939078 18.718099 -39.525444 -1.670626 0.000004 -0.000001 -0.000003 10.261412 5.279198 1.813970 26.828829 -2.563606 -15.729296 4.381329 16.909218 -0.238164 0.000001 0.000000 -0.000001 3.675940 0.423739 -13.467912 -3.689685 -9.494972 24.469315 4.648957 -19.773737 -12.757116 -0.000002 0.000002 0.000000 10.606830 -4.404852 -19.519829 -11.332100 1.853313 5.326156 0.329670 3.969254 9.877972 -0.000000 -0.000000 0.000001 
0.921749 97.058792 -10.077322 -2.060806 31.689513 5.903893 0.033577 -0.461649 7.470378 6.247982 3.474947 -4.738495 -0.065147 13.798245 0.828676 12.457684 9.965850 -0.327128 -0.000002 0.000001 0.000001 -2.680357 -8.318160 2.368828 -18.600903 -0.377432 -5.177094 18.219116 -39.223570 -2.209624 0.000002 0.000000 -0.000002 10.132667 4.856280 1.728890 26.912416 -2.304502 -15.955901 4.406013 16.820225 -0.105176 -0.000002 -0.000003 -0.000000 3.526242 0.444379 -13.663118 -3.669272 -9.447869 24.514985 4.699193 -19.442171 -12.268112 -0.000003 -0.000001 -0.000001 10.401518 -4.339868 -19.737186 -11.450769 1.866533 5.490823 0.823836 3.476006 9.587519 -0.000000 0.000001 0.000003 
0.913570 97.001038 -10.123690 -2.563703 31.974209 6.000048 0.124720 -0.468017 7.647825 6.288126 3.496245 -4.754477 -0.136184 13.342850 0.724289 12.943801 10.236445 0.080338 -0.000003 -0.000002 -0.000001 -2.247085 -8.222900 2.394825 -18.407315 -0.521396 -5.121676 17.761635 -38.856659 -2.319720 0.000002 0.000000 -0.000002 10.311426 5.076703 1.783202 26.996533 -2.232238 -15.988930 4.551691 16.858633 0.093266 -0.000000 -0.000002 0.000000 4.074352 0.368858 -13.472007 -4.100772 -9.649704 24.718998 4.851547 -19.905321 -12.282500 -0.000003 0.000003 -0.000000 11.314037 -4.657173 -19.281624 -12.237339 1.676097 5.071906 1.492284 2.965732 9.891142 0.000004 -0.000002 -0.000000 
0.900046 96.950325 -10.177445 -2.287898 31.509247 6.131531 0.253311 -0.447244 7.547023 6.352572 3.545007 -4.892469 -0.354855 13.343545 0.784945 13.024554 10.249591 -0.568369 -0.000001 -0.000000 -0.000001 -2.208764 -8.194387 2.487007 -18.957573 -0.609251 -5.438295 16.066896 -37.783015 -3.899764 0.000002 -0.000000 -0.000001 10.438389 5.323625 1.878764 27.298156 -2.283132 -16.046710 4.601505 16.301974 -0.178763 -0.000002 -0.000001 -0.000002 3.808507 0.397067 -13.784867 -3.950023 -9.599828 24.617412 4.383664 -18.985614 -12.628829 -0.000004 0.000003 0.000000 11.086563 -4.578266 -19.520476 -12.532921 1.578879 4.860944 1.881244 2.973998 10.619628 0.000002 -0.000000 0.000001 
0.887713 96.900841 -10.226201 -2.284825 31.320724 6.129187 0.270654 -0.441720 7.591843 6.223222 3.478658 -4.895849 -0.228799 13.499253 0.737759 13.212414 10.428603 -0.267082 0.000001 -0.000000 -0.000001 -2.173392 -8.100298 2.395602 -18.880752 -0.712080 -5.483597 15.567014 -37.385218 -4.195591 0.000002 0.000002 -0.000002 10.505415 5.273222 1.824886 27.257250 -2.173852 -16.192266 4.729924 16.317433 -0.074945 0.000001 0.000003 -0.000002 3.674472 0.416243 -13.922364 -3.756803 -9.575022 24.776166 5.078699 -19.636637 -11.486816 -0.000003 -0.000001 -0.000000 11.015370 -4.561428 -19.573633 -12.824338 1.619754 4.860593 2.135156 2.614024 10.514522 -0.000001 -0.000004 0.000002 
